<svg id="Layer_1" data-name="Layer 1" xmlns="http://www.w3.org/2000/svg" viewBox="0 0 447.94 175.4"><defs><style>.cls-1{fill:#ec6568;}</style></defs><path class="cls-1" d="M99.46,30.05V1.45h28Z"/><path class="cls-1" d="M145,1.45h28v28.6Z"/><path class="cls-1" d="M84.7,51.06H60V45.5a26.33,26.33,0,0,0-4-14.65q-4-6.17-13.43-6.17a15.54,15.54,0,0,0-8.23,1.94,16.24,16.24,0,0,0-5.08,4.84,20.44,20.44,0,0,0-2.66,7.14A46.92,46.92,0,0,0,25.89,47a82.12,82.12,0,0,0,.37,8.47,16,16,0,0,0,1.81,6,13.4,13.4,0,0,0,4.24,4.6,38.63,38.63,0,0,0,7.62,3.87l18.88,7.5a47,47,0,0,1,13.31,7.38,32,32,0,0,1,8,9.8,45.47,45.47,0,0,1,3.63,13.19,129.69,129.69,0,0,1,1,16.82,88.81,88.81,0,0,1-2.18,20.21,42.52,42.52,0,0,1-7,15.85,34.71,34.71,0,0,1-13.31,10.65q-8.22,3.87-20.08,3.87a43.89,43.89,0,0,1-16.7-3.15,39.63,39.63,0,0,1-13.31-8.71A42.33,42.33,0,0,1,3.27,150.4,39.26,39.26,0,0,1,0,134.31v-9.2H24.68v7.75a20.17,20.17,0,0,0,4,12.22q4,5.44,13.43,5.44,6.28,0,9.8-1.81a13,13,0,0,0,5.44-5.2,19.13,19.13,0,0,0,2.3-8.11q.38-4.72.37-10.53a104.8,104.8,0,0,0-.49-11.13,19.34,19.34,0,0,0-1.93-7,13.71,13.71,0,0,0-4.48-4.35,57.84,57.84,0,0,0-7.38-3.63L28.07,91.48q-16-6.54-21.41-17.31t-5.45-27A62.43,62.43,0,0,1,3.87,28.8a42,42,0,0,1,8-15,36.61,36.61,0,0,1,13-10Q32.67,0,43.56,0A40.93,40.93,0,0,1,60.38,3.39a43.49,43.49,0,0,1,13.19,9Q84.7,24,84.7,39Z"/><path class="cls-1" d="M99.46,67.4a90.53,90.53,0,0,1,1-13.8,32.8,32.8,0,0,1,16.09-24q8.1-4.83,19.72-4.84T156,29.64a32.8,32.8,0,0,1,16.09,24,91.83,91.83,0,0,1,1,13.8v65.41a91.6,91.6,0,0,1-1,13.79,33.72,33.72,0,0,1-3.63,11.14A33.32,33.32,0,0,1,156,170.56q-8.11,4.84-19.73,4.84t-19.72-4.84a32.76,32.76,0,0,1-16.09-24,90.31,90.31,0,0,1-1-13.79Zm24.68,69.28q0,7,3.27,10.53a12.87,12.87,0,0,0,17.67,0q3.25-3.51,3.26-10.53V63.52q0-7-3.26-10.52a12.87,12.87,0,0,0-17.67,0q-3.27,3.51-3.27,10.52Z"/><path class="cls-1" d="M184.64,173.76V152l46.47-127.3H187.06V1.45H258v19.6L210.54,150.52H258v23.24Z"/><path class="cls-1" d="M273.21,173.76V1.45h73.57V24.68H297.9V75.26h42.59V98.49H297.9v50.58h48.88v24.69Z"/><path class="cls-1" d="M361.78,173.76V1.45H385.5l37.27,103.82h.48V1.45h24.69V173.76H424.7L387,70.18h-.48V173.76Z"/></svg>