<svg id="Layer_1" data-name="Layer 1" xmlns="http://www.w3.org/2000/svg" viewBox="0 0 488.49 211.66"><defs><style>.cls-1{fill:#596475;}.cls-2{fill:#fff;}</style></defs><rect class="cls-1" width="488.49" height="211.66"/><path class="cls-2" d="M120.18,47.14V18.54h28Z"/><path class="cls-2" d="M165.72,18.54h28v28.6Z"/><path class="cls-2" d="M105.42,68.15H80.72V62.59a26.24,26.24,0,0,0-4-14.65q-4-6.16-13.43-6.17a15.67,15.67,0,0,0-8.23,1.94A16.53,16.53,0,0,0,50,48.55a20.84,20.84,0,0,0-2.66,7.14,48.36,48.36,0,0,0-.71,8.4c0,2.83.11,5.66.37,8.47a16.2,16.2,0,0,0,1.81,6A13.46,13.46,0,0,0,53,83.16,38.46,38.46,0,0,0,60.65,87l18.88,7.5a47,47,0,0,1,13.31,7.38,31.83,31.83,0,0,1,8,9.8,45.22,45.22,0,0,1,3.63,13.19,127.84,127.84,0,0,1,1,16.82,88.62,88.62,0,0,1-2.18,20.21,42.39,42.39,0,0,1-7,15.85A34.67,34.67,0,0,1,83,188.43q-8.22,3.87-20.08,3.87a43.85,43.85,0,0,1-16.7-3.15,39.64,39.64,0,0,1-13.31-8.71A42.51,42.51,0,0,1,24,167.49a39.36,39.36,0,0,1-3.27-16.09v-9.2H45.4V150a20.19,20.19,0,0,0,4,12.22q4,5.45,13.43,5.44,6.28,0,9.8-1.81a13,13,0,0,0,5.44-5.2,18.94,18.94,0,0,0,2.3-8.11q.39-4.71.37-10.53a101,101,0,0,0-.49-11.13,19.24,19.24,0,0,0-1.93-7,13.7,13.7,0,0,0-4.48-4.35,58.71,58.71,0,0,0-7.38-3.63l-17.67-7.28Q32.8,102,27.38,91.26t-5.45-27a62.81,62.81,0,0,1,2.66-18.37,42.17,42.17,0,0,1,8-15,36.79,36.79,0,0,1,13-10q7.8-3.8,18.69-3.8A41,41,0,0,1,81.1,20.48a43.35,43.35,0,0,1,13.19,9q11.13,11.61,11.13,26.61Z"/><path class="cls-2" d="M120.18,84.49a92.37,92.37,0,0,1,1-13.8,32.85,32.85,0,0,1,16.09-24q8.1-4.83,19.72-4.84t19.73,4.88a32.79,32.79,0,0,1,16.09,24,91.06,91.06,0,0,1,1,13.8v65.41a89.57,89.57,0,0,1-1,13.79,32.62,32.62,0,0,1-16.09,23.92q-8.1,4.84-19.73,4.84t-19.72-4.84a32.77,32.77,0,0,1-16.09-24,92.14,92.14,0,0,1-1-13.79Zm24.68,69.28q0,7,3.27,10.53a12.85,12.85,0,0,0,17.67,0q3.25-3.51,3.26-10.53V80.61q0-7-3.26-10.52a12.87,12.87,0,0,0-17.67,0q-3.27,3.51-3.27,10.52Z"/><path class="cls-2" d="M205.36,190.85V169.09l46.47-127.3H207.78V18.54h70.94v19.6L231.26,167.61h47.46v23.24Z"/><path class="cls-2" d="M293.93,190.85V18.54H367.5V41.77H318.62V92.35h42.59v23.23H318.62v50.58H367.5v24.69Z"/><path class="cls-2" d="M382.5,190.85V18.54h23.72l37.27,103.82H444V18.54h24.69V190.85H445.42L407.72,87.27h-.48V190.85Z"/></svg>